<svg xmlns="http://www.w3.org/2000/svg" viewBox="0 0 64 64" fill="none">
  <defs>
    <linearGradient id="g" x1="0%" y1="0%" x2="100%" y2="100%">
      <stop offset="0%" stop-color="#F8C97A"/>
      <stop offset="100%" stop-color="#D4830A"/>
    </linearGradient>
  </defs>
  <!-- Dark background -->
  <rect width="64" height="64" rx="14" fill="#080808"/>
  <!-- Hex nodes (background detail) -->
  <polygon points="32,5 52,16 52,40 32,51 12,40 12,16"
    fill="rgba(245,176,65,0.05)" stroke="rgba(245,176,65,0.35)" stroke-width="1.2"/>
  <circle cx="32" cy="5" r="2" fill="#F5B041" opacity="0.5"/>
  <circle cx="52" cy="16" r="2" fill="#F5B041" opacity="0.4"/>
  <circle cx="12" cy="16" r="2" fill="#F5B041" opacity="0.4"/>
  <circle cx="52" cy="40" r="1.5" fill="#F5B041" opacity="0.3"/>
  <circle cx="12" cy="40" r="1.5" fill="#F5B041" opacity="0.3"/>
  <!-- F letterform -->
  <rect x="11" y="20" width="5" height="26" rx="2" fill="url(#g)"/>
  <rect x="11" y="20" width="17" height="5" rx="2" fill="url(#g)"/>
  <rect x="11" y="30" width="13" height="4" rx="2" fill="url(#g)" opacity="0.85"/>
  <!-- dash -->
  <rect x="30" y="31" width="6" height="4" rx="2" fill="#F8C97A" opacity="0.65"/>
  <!-- B letterform -->
  <rect x="38" y="20" width="5" height="26" rx="2" fill="url(#g)"/>
  <path d="M43 20 Q55 20 55 28 Q55 36 43 36 Z" fill="url(#g)"/>
  <path d="M43 36 Q57 36 57 44 Q57 46 43 46 Z" fill="url(#g)"/>
  <!-- i dot + stem -->
  <circle cx="54" cy="22" r="3" fill="#F8C97A"/>
  <rect x="51" y="27" width="6" height="19" rx="3" fill="url(#g)"/>
</svg>
